# xmcd
#
# Track frame offsets: 
#        150
#        13253
#        50695
#        67394
#        99046
#        126674
#        193043
#        206003
#        230552
#        255011
#
# Disc length: 3661 seconds
#
# Revision: 1
# Processed by: cddbd v1.5.2PL0 Copyright (c) Steve Scherf et al.
# Submitted via: ExactAudioCopy v0.95b4
#
DISCID=910e4b0a
DTITLE=Renaissance - Illusion
DYEAR=1970
DGENRE=Symphonic Rock
TTITLE0=Love Goes On
TTITLE1=Golden Thread
TTITLE2=Love Is All
TTITLE3=Mr. Pine
TTITLE4=Face Of Yesterday
TTITLE5=Past Orbits Of Dust
TTITLE6=Shining Where The Sun Has Been
TTITLE7=All The Fallen Angels
TTITLE8=Prayer For Light
TTITLE9=Walking Away
EXTD=YEAR: 1970
EXTT0=
EXTT1=
EXTT2=
EXTT3=
EXTT4=
EXTT5=
EXTT6=
EXTT7=
EXTT8=
EXTT9=
PLAYORDER=
